<svg width="256" height="256" viewBox="0 0 256 256" fill="none" xmlns="http://www.w3.org/2000/svg">
  <defs>
    <linearGradient id="tileGradient" x1="40" y1="40" x2="216" y2="216" gradientUnits="userSpaceOnUse">
      <stop stop-color="#F97316"/>
      <stop offset="1" stop-color="#EA580C"/>
    </linearGradient>
    <linearGradient id="tileSheen" x1="68" y1="30" x2="190" y2="182" gradientUnits="userSpaceOnUse">
      <stop stop-color="white" stop-opacity="0"/>
      <stop offset="0.55" stop-color="white" stop-opacity="0.14"/>
      <stop offset="1" stop-color="white" stop-opacity="0.34"/>
    </linearGradient>
    <filter id="tileShadow" x="12" y="18" width="232" height="232" filterUnits="userSpaceOnUse" color-interpolation-filters="sRGB">
      <feDropShadow dx="0" dy="14" stdDeviation="12" flood-color="#F97316" flood-opacity="0.3"/>
    </filter>
  </defs>

  <g filter="url(#tileShadow)">
    <rect x="32" y="24" width="192" height="192" rx="32" fill="url(#tileGradient)"/>
    <rect x="32.75" y="24.75" width="190.5" height="190.5" rx="31.25" stroke="black" stroke-opacity="0.06" stroke-width="1.5"/>
    <rect x="32" y="24" width="192" height="192" rx="32" fill="url(#tileSheen)"/>
  </g>

  <g transform="translate(71 60)">
    <path d="M57 1L114 30L57 59L0 30L57 1Z" fill="white" fill-opacity="0.96"/>
    <path d="M0 30V87L57 116V59L0 30Z" fill="white" fill-opacity="0.55"/>
    <path d="M114 30V87L57 116V59L114 30Z" fill="white" fill-opacity="0.8"/>
    <path d="M0 30L57 59L114 30" stroke="black" stroke-opacity="0.16" stroke-width="2" stroke-linejoin="round"/>
    <path d="M57 59V116" stroke="black" stroke-opacity="0.16" stroke-width="2"/>
  </g>
</svg>
